<?xml version="1.0" encoding="UTF-8" standalone="no"?>
<!-- Created with Inkscape (http://www.inkscape.org/) -->

<svg
   xmlns:dc="http://purl.org/dc/elements/1.1/"
   xmlns:cc="http://creativecommons.org/ns#"
   xmlns:rdf="http://www.w3.org/1999/02/22-rdf-syntax-ns#"
   xmlns:svg="http://www.w3.org/2000/svg"
   xmlns="http://www.w3.org/2000/svg"
   xmlns:xlink="http://www.w3.org/1999/xlink"
   xmlns:sodipodi="http://sodipodi.sourceforge.net/DTD/sodipodi-0.dtd"
   xmlns:inkscape="http://www.inkscape.org/namespaces/inkscape"
   width="600"
   height="600"
   viewBox="0 0 158.75 158.75"
   version="1.1"
   id="svg8"
   inkscape:version="0.92.4 5da689c313, 2019-01-14"
   sodipodi:docname="logo.svg">
  <defs
     id="defs2" />
  <sodipodi:namedview
     id="base"
     pagecolor="#ffffff"
     bordercolor="#666666"
     borderopacity="1.0"
     inkscape:pageopacity="0.0"
     inkscape:pageshadow="2"
     inkscape:zoom="1"
     inkscape:cx="543.98986"
     inkscape:cy="188.2893"
     inkscape:document-units="mm"
     inkscape:current-layer="layer1"
     showgrid="false"
     units="px"
     inkscape:window-width="1918"
     inkscape:window-height="1048"
     inkscape:window-x="1920"
     inkscape:window-y="15"
     inkscape:window-maximized="1"
     inkscape:object-paths="false"
     inkscape:snap-bbox="true"
     showguides="true"
     inkscape:guide-bbox="true"
     inkscape:snap-intersection-paths="false" />
  <metadata
     id="metadata5">
    <rdf:RDF>
      <cc:Work
         rdf:about="">
        <dc:format>image/svg+xml</dc:format>
        <dc:type
           rdf:resource="http://purl.org/dc/dcmitype/StillImage" />
        <dc:title></dc:title>
      </cc:Work>
    </rdf:RDF>
  </metadata>
  <g
     inkscape:label="Ebene 1"
     inkscape:groupmode="layer"
     id="layer1"
     transform="translate(0,-138.24998)">
    <image
       sodipodi:absref="/home/florian/dev/r2ghidra/assets/ghidra_logo_round_white.png"
       xlink:href="ghidra_logo_round_white.png"
       style="display:inline"
       width="158.75"
       height="158.75"
       preserveAspectRatio="none"
       id="image1466"
       x="-0.093544334"
       y="138.19151" />
    <g
       id="g1732"
       transform="matrix(1.0796028,0,0,1.0796028,-3.1745108,-15.551248)">
      <g
         transform="matrix(1.4753052,0,0,1.4753052,-25.793175,-88.583169)"
         id="g1679">
        <path
           sodipodi:nodetypes="ccccccccccccccccccccsscccccsccccccccccccccc"
           inkscape:connector-curvature="0"
           id="path3023"
           transform="matrix(0.17934142,0,0,0.17934142,17.483281,153.75337)"
           d="m 218.26172,161.11914 c 4e-4,-0.39812 -74.51603,37.16081 -74.50977,37.35742 0.0106,0.33456 74.41016,37.06641 74.41016,37.06641 z m 75.33789,0.0684 c -1.17672,0.41039 -74.33132,37.11247 -74.31641,37.28516 0.029,0.33232 74.0656,37.20501 74.39844,37.05273 l -0.0527,-47.7832 h 159.3027 V 161.1875 Z m 159.33203,26.55469 v 26.55469 h 53.11133 v -26.55469 z m -346.14258,-25.81836 -0.30859,15.26367 c -0.16934,0 -0.9053,-0.99717 -1.63477,-2.2168 -1.81434,-3.03337 -6.170495,-7.30954 -9.312497,-9.14258 -6.405715,-3.73706 -15.111441,-4.64697 -22.064453,-2.30468 -8.034836,2.70673 -12.623824,10.0357 -11.367188,18.15429 0.959383,6.19813 5.041017,11.68024 10.105469,13.57422 7.197752,2.6918 15.182123,1.41051 19.738281,-3.16601 4.503193,-4.52333 5.222576,-7.6923 4.279297,-18.86133 -0.121221,-1.43514 1.051292,-2.01085 2.425782,-1.18945 1.647139,0.98432 4.381479,5.20379 5.298829,8.17382 1.42434,4.61154 1.63476,8.56232 1.63476,30.8125 v 21.60157 H 94.335938 v 3.21484 h 56.640622 v -3.21484 h -8.03515 v -65.87891 h 4.01757 4.01758 v -1.54297 -1.54297 l -10.14258,-0.26758 c -5.57868,-0.1472 -14.30123,-0.53396 -19.38281,-0.85742 -5.08157,-0.3234 -10.45984,-0.59146 -11.95117,-0.59765 z"
           style="fill:#000000;stroke-width:0.40170553" />
      </g>
      <g
         id="g1722">
        <g
           id="g1704"
           transform="translate(-0.37935781,-0.36261111)">
          <rect
             style="fill:#ffffff;fill-opacity:1;stroke:none;stroke-width:6.83040905;stroke-miterlimit:4;stroke-dasharray:none;stroke-opacity:1"
             id="rect1694"
             width="4.7624998"
             height="2.3353958"
             x="71.203461"
             y="193.30164" />
          <rect
             y="190.96623"
             x="66.440964"
             height="2.3353958"
             width="4.7624998"
             id="rect1700"
             style="fill:#ffffff;fill-opacity:1;stroke:none;stroke-width:6.83040905;stroke-miterlimit:4;stroke-dasharray:none;stroke-opacity:1" />
        </g>
        <g
           transform="translate(-20.360561,-0.35775861)"
           id="g1710">
          <path
             style="fill:#ffffff;fill-opacity:1;stroke:none;stroke-width:25.8157196;stroke-miterlimit:4;stroke-dasharray:none;stroke-opacity:1"
             d="m 182.14258,217.73438 v 8.82617 h 18 v -8.82617 z m 18,8.82617 v 8.82617 h 18 v -8.82617 z"
             transform="matrix(0.26458333,0,0,0.26458333,18.249061,133.35741)"
             id="rect1706"
             inkscape:connector-curvature="0" />
        </g>
      </g>
    </g>
  </g>
</svg>
