<?xml version="1.0" encoding="UTF-8" standalone="no"?>
<svg
   xmlns:dc="http://purl.org/dc/elements/1.1/"
   xmlns:cc="http://creativecommons.org/ns#"
   xmlns:rdf="http://www.w3.org/1999/02/22-rdf-syntax-ns#"
   xmlns:svg="http://www.w3.org/2000/svg"
   xmlns="http://www.w3.org/2000/svg"
   width="600"
   height="600"
   viewBox="0 0 158.75 158.75"
   version="1.1"
   id="svg8">
  <defs
     id="defs2" />
  <metadata
     id="metadata5">
    <rdf:RDF>
      <cc:Work
         rdf:about="">
        <dc:format>image/svg+xml</dc:format>
        <dc:type
           rdf:resource="http://purl.org/dc/dcmitype/StillImage" />
        <dc:title></dc:title>
      </cc:Work>
    </rdf:RDF>
  </metadata>
  <g
     id="layer1"
     style="display:inline">
    <g
       id="g2693"
       transform="matrix(-0.23574534,-0.29620361,0.29620361,-0.23574534,71.007401,197.87319)">
      <path
         id="rect2695"
         style="display:inline;fill:#ffd42a;fill-opacity:1;stroke:none;stroke-width:22.8644;stroke-linecap:round;stroke-linejoin:round;stroke-opacity:1;paint-order:stroke markers fill"
         d="m -377.52148,293.57812 c -0.0507,0.0642 -0.098,0.1309 -0.14844,0.19532 0.0514,-0.0656 0.10461,-0.12987 0.15625,-0.19532 -0.003,-2e-4 -0.005,2.1e-4 -0.008,0 z m 107.62695,1.63868 c 0.0353,0.048 0.0703,0.0964 0.10547,0.14453 -0.0352,-0.0482 -0.0701,-0.0965 -0.10547,-0.14453 z m -109.09961,0.30664 c -0.0731,0.10054 -0.14233,0.20372 -0.21484,0.30468 0.0725,-0.10096 0.14173,-0.20415 0.21484,-0.30468 z m 80.03906,1.55078 -25.47656,21.83594 -25.75195,-21.50977 -25.47852,21.83594 -11.09375,-9.26953 c -2.43647,6.54241 -3.75168,13.58381 -3.70508,20.92773 l 0.32032,50.37695 c 0.21797,34.34708 29.87384,61.8125 66.49414,61.58008 36.62027,-0.23241 65.92697,-28.07089 65.70898,-62.41797 l -0.32031,-50.3789 c -0.0466,-7.34344 -1.45095,-14.36552 -3.97071,-20.875 l -10.9746,9.40625 z m 30.375,0.004 c 0.0693,0.10192 0.14036,0.20237 0.20899,0.30469 -0.0686,-0.10228 -0.13974,-0.20281 -0.20899,-0.30469 z m -111.67383,0.25 c -0.15478,0.22957 -0.30539,0.46177 -0.45703,0.69336 0.15158,-0.23157 0.30231,-0.46382 0.45703,-0.69336 z m -1.19921,1.85743 c -0.15278,0.24522 -0.30777,0.48896 -0.45704,0.73633 0.14927,-0.24744 0.30427,-0.49104 0.45704,-0.73633 z m 115.50195,2.11914 c 0.0657,0.11616 0.13033,0.233 0.19531,0.34961 -0.065,-0.1166 -0.12953,-0.23346 -0.19531,-0.34961 z m -117.00781,0.42383 c -0.095,0.17049 -0.18396,0.34419 -0.27735,0.51562 0.0933,-0.17131 0.18241,-0.34525 0.27735,-0.51562 z m 118.10351,1.60546 c 0.0723,0.13998 0.14559,0.27935 0.2168,0.41993 -0.0713,-0.14056 -0.14446,-0.27997 -0.2168,-0.41993 z m -119.12695,0.32032 c -0.14045,0.2749 -0.27782,0.55098 -0.41406,0.82812 0.13623,-0.27722 0.27361,-0.55314 0.41406,-0.82812 z m -0.97266,1.99609 c -0.13121,0.28217 -0.26377,0.5633 -0.39062,0.84766 0.12686,-0.28448 0.2594,-0.56537 0.39062,-0.84766 z m 122.18946,2.17383 c 0.0821,0.19764 0.16219,0.39706 0.24218,0.5957 -0.0802,-0.1989 -0.15992,-0.3978 -0.24218,-0.5957 z m -123.35547,0.49023 c -0.12025,0.29557 -0.2321,0.59485 -0.34766,0.89258 0.11559,-0.2979 0.22737,-0.59684 0.34766,-0.89258 z"
         transform="matrix(0.53864246,0.00341855,-0.00341855,0.53864246,432.95646,-80.430593)" />
      <g
         id="g2809"
         transform="rotate(14.591223,281.9197,91.938518)">
        <path
           id="path2681"
           style="fill:#5fc65f;fill-opacity:1;stroke:none;stroke-width:0.290565px;stroke-linecap:butt;stroke-linejoin:miter;stroke-opacity:1"
           d="m 232.57318,28.355976 c -5.53542,11.375057 -6.41211,35.456789 0.15916,31.689537 l 15.86157,-9.094017 c 7.18022,-4.116352 -5.17802,-19.761675 -16.02073,-22.59552 z m 49.08021,0 c -10.84271,2.833845 -23.20095,18.479168 -16.02073,22.59552 l 15.86157,9.094017 c 6.57127,3.767252 5.69458,-20.31448 0.15916,-31.689537 z" />
        <path
           id="path2683"
           style="fill:#4aaa24;fill-opacity:1;stroke:none;stroke-width:0.290565px;stroke-linecap:butt;stroke-linejoin:miter;stroke-opacity:1"
           d="m 257.11328,21.534687 c 0,0 -17.04971,11.491294 -16.07033,28.470098 -11.08473,-13.260524 -22.10079,-7.314986 -31.0224,-0.422714 12.732,0.0295 27.89846,16.281394 30.45293,22.224484 0,0 16.53582,-12.419904 16.6398,-12.879319 0.10399,0.459415 16.63981,12.879319 16.63981,12.879319 2.55447,-5.94309 17.72093,-22.194981 30.45293,-22.224484 -8.92161,-6.892272 -19.93767,-12.83781 -31.0224,0.422714 C 274.163,33.025981 257.11328,21.534687 257.11328,21.534687 Z" />
        <path
           id="path2685"
           style="display:inline;fill:#73ce53;fill-opacity:1;stroke:none;stroke-width:0.290565px;stroke-linecap:butt;stroke-linejoin:miter;stroke-opacity:1"
           d="m 257.11288,35.97792 c 0,0 -11.23078,6.884606 -10.2514,23.863413 -11.08472,-13.260528 -24.56061,-5.684316 -32.52529,3.691527 17.00281,1.307181 22.19228,6.784454 24.07237,12.304281 a 23.640856,17.341284 0.36362884 0 1 18.9893,-6.8495 23.640856,17.341284 0.36362884 0 1 18.47838,6.682244 c 1.92827,-5.462793 7.18288,-10.842943 24.01392,-12.136925 -7.96469,-9.375838 -21.44,-16.952482 -32.52472,-3.691955 C 268.34482,42.862202 257.11288,35.97792 257.11288,35.97792 Z" />
        <path
           id="rect2687"
           style="display:inline;fill:#ffd42a;fill-opacity:1;stroke:none;stroke-width:12.316;stroke-linecap:round;stroke-linejoin:round;stroke-opacity:1;paint-order:stroke markers fill"
           d="m 257.11347,63.072101 c -11.68824,-1e-6 -22.02538,5.229823 -28.50972,13.340371 2.3261,0.199093 4.73717,0.310973 7.20887,0.326659 l 41.19142,0.261426 c 3.03515,0.01926 5.97937,-0.1102 8.79034,-0.367149 C 279.32184,68.398052 268.90663,63.0721 257.11347,63.072101 Z" />
        <path
           id="path2689"
           style="display:inline;fill:#f0b01f;fill-opacity:1;stroke:none;stroke-width:2.65221;stroke-linecap:round;stroke-linejoin:round;stroke-opacity:1;paint-order:stroke markers fill"
           d="m 246.5501,64.554799 c -10.71505,3.097358 -19.2386,10.792455 -22.9805,20.650936 l 5.94847,5.033285 13.79761,-11.67474 13.7976,11.67474 13.79761,-11.67474 13.79761,11.67474 5.94847,-5.033285 c -3.7419,-9.858481 -12.26545,-17.553578 -22.98051,-20.650936 l -10.56318,8.937956 z" />
      </g>
      <path
         id="path2728"
         style="display:inline;fill:#f0b01f;fill-opacity:1;stroke:none;stroke-width:2.65221;stroke-linecap:round;stroke-linejoin:round;stroke-opacity:1;paint-order:stroke markers fill"
         d="m 243.31568,127.50445 -13.79761,11.67422 -6.32158,-5.34851 c 2.29685,6.74826 6.80927,12.55057 12.74393,16.661 l 7.37526,-6.24045 13.7976,11.67474 13.79761,-11.67474 7.37526,6.24045 c 5.93453,-4.11034 10.44703,-9.91242 12.74393,-16.66048 l -6.32158,5.34851 v -5.3e-4 l -13.79761,-11.67421 -13.79761,11.67474 v -5.3e-4 z" />
      <path
         id="path2811"
         style="display:inline;fill:#f0b01f;fill-opacity:1;stroke:none;stroke-width:2.65221;stroke-linecap:round;stroke-linejoin:round;stroke-opacity:1;paint-order:stroke markers fill"
         d="m 245.21343,93.039432 -13.79761,11.674218 -9.90936,-6.452826 1.7e-4,14.531556 10.97825,6.93267 12.72859,-9.93936 13.7976,11.67474 13.79761,-11.67474 7.37526,6.24045 c 5.93453,-4.11034 10.44703,-9.91242 12.74393,-16.660478 l -6.32158,5.348508 v -5.3e-4 L 272.80868,93.039432 259.01107,104.71417 v -5.3e-4 z" />
    </g>
    <path
       style="display:inline;fill:#682f26;fill-opacity:1;stroke-width:0.264583"
       d="M 71.740437,153.48196 C 52.802914,151.415 34.999131,145.10798 22.90739,130.85664 c -3.094783,-3.64752 -3.672649,-6.92884 -2.590743,-6.12059 2.296744,1.7158 33.345941,11.90835 40.840457,13.38657 19.531351,3.85237 36.049246,0.26775 51.242376,-11.12034 9.7375,-7.29878 15.45118,-21.56709 14.81748,-37.002457 -0.60358,-14.701882 -5.51616,-21.016943 -18.00649,-23.147163 -3.26724,-0.55723 -4.73565,-0.48527 -7.00916,0.34345 l -1.95058,0.71101 -0.713158,2.11666 c -2.618027,7.77038 -9.178276,13.626043 -15.2656,13.626043 -1.128744,0 -1.470515,0.09898 -1.598771,0.463021 -4.791734,13.600626 -14.867679,37.197246 -16.680474,39.063606 -2.07136,2.13257 -3.428778,2.35573 -7.483531,1.23029 -7.1482,-1.98407 -11.420477,-5.02501 -18.287468,-13.01674 -1.582417,-1.84161 -2.877124,-3.39547 -2.877124,-3.45303 0,-0.0576 2.053828,0.11272 4.564062,0.3784 5.498164,0.5819 11.263019,0.69083 12.830525,0.24243 1.600861,-0.45795 1.898338,-1.19525 2.18182,-5.40769 0.129286,-1.92115 0.377124,-4.846167 0.550749,-6.500043 0.600794,-5.7229 0.362818,-7.146568 -1.948225,-11.654951 -2.623553,-5.118021 -3.212161,-7.055911 -3.030001,-9.975726 0.08191,-1.31297 0.03639,-2.21748 -0.111596,-2.21748 -0.256563,0 -1.11629,1.802127 -1.928516,4.042486 -1.611693,4.445535 -6.90127,6.835746 -11.338957,5.123759 -1.431181,-0.552127 -1.397299,-0.560474 -1.639329,0.40385 -0.16446,0.655267 0.04198,0.869998 2.900648,3.017202 1.692738,1.27145 2.98313,2.396173 2.867536,2.499384 -0.115596,0.103212 -2.029624,0.400444 -4.253397,0.660519 -5.148127,0.602078 -6.936882,0.294447 -9.516673,-1.636696 l -0.859896,-0.643687 v 0.817756 c 0,1.366401 3.012575,6.058347 4.577503,7.129246 0.69673,0.476781 0.669378,1.440312 -0.03496,1.231378 -0.242827,-0.07203 -1.953906,-0.438642 -3.802401,-0.814686 -6.652773,-1.353399 -9.932085,-3.288491 -10.916171,-6.44153 -0.188133,-0.602784 -0.202055,-0.605351 -0.554508,-0.102153 -0.698573,0.997352 -1.645525,4.46219 -2.237818,8.188037 -0.329046,2.069875 -0.693044,3.704833 -0.808886,3.633239 -0.115842,-0.0716 -1.167348,-1.478809 -2.336682,-3.127142 C 8.7548992,91.504445 7.7959092,88.648639 8.0540642,83.544874 8.5646312,73.45088 13.554426,67.32865 23.17981,64.98634 35.973201,61.8731 42.715237,56.45574 44.899402,47.5342 c 2.193687,-8.96044 7.596296,-12.195 16.639984,-9.9624 1.872607,0.46229 2.407179,0.51369 2.560775,0.24624 0.693751,-1.20799 2.803113,-3.98352 4.560263,-6.00045 11.533974,-13.23915 29.963418,-19.8502 45.781926,-16.42298 4.17943,0.9055 5.83,1.73664 10.05088,5.06106 l 1.29133,1.01707 h -2.66125 c -4.47843,0 -9.97017,1.13971 -12.22454,2.53699 -0.3638,0.22549 -0.45237,0.34568 -0.19681,0.26709 2.71923,-0.83621 9.84142,-1.74058 13.73119,-1.74358 l 2.81876,-0.002 c 0,0 1.99135,0.84185 2.6194,1.2027 53.12389,30.52175 23.48061,122.25624 -41.567416,131.3105 -3.217106,0.4478 -13.265792,-1.20238 -16.563458,-1.56231 z"
       id="path1367" />
    <path
       style="display:inline;fill:#e22726;fill-opacity:1;stroke-width:0.264583"
       d="m 72.624299,154.2916 c -0.363802,-0.0525 -4.285884,-0.4951 -5.595571,-0.65403 -13.545463,-1.64383 -25.341584,-7.16966 -36.470853,-16.48399 -2.433397,-2.03656 -9.073158,-10.2972 -8.863465,-10.50689 0.05509,-0.0551 1.668896,0.70242 3.285842,1.59253 19.861126,10.93332 44.176841,18.5357 59.074164,16.03722 29.309854,-4.91565 47.347754,-24.15544 47.350604,-49.424383 0.001,-9.931548 -5.23418,-20.362975 -10.71762,-25.939607 -1.48658,-1.51184 -9.61965,-4.57721 -12.14431,-4.57721 -0.32708,0 -0.64405,-0.61604 -1.19119,-2.3151 -1.26897,-3.94065 -2.05958,-5.16266 -5.70352,-8.81578 -2.927648,-2.93501 -8.572527,-7.12537 -9.598679,-7.12537 -0.08664,0 0.729898,1.30704 1.81452,2.90453 2.748547,4.04822 4.050221,6.85508 4.379651,9.44408 0.85237,6.69864 -2.175116,15.79452 -6.360375,19.109304 -2.604296,2.062642 -7.223,3.492405 -9.574834,2.963982 l -1.092922,-0.245563 -0.478896,1.10194 c -0.263393,0.606065 -2.562757,6.162093 -5.1097,12.346728 -8.56574,20.799829 -11.055741,26.451569 -12.049455,27.349519 -1.336239,1.20747 -4.432446,0.68791 -9.160227,-1.53713 -2.090214,-0.98372 -2.557561,-1.33572 -3.74242,-2.81876 -3.044778,-3.81102 -2.856617,-4.39956 1.52905,-4.7827 3.183576,-0.27813 5.325095,-0.82468 6.042594,-1.54218 1.166554,-1.16655 1.719313,-4.82305 2.139733,-14.154279 0.349504,-7.757236 0.398291,-7.444737 -1.88732,-12.089646 -3.3484,-6.804757 -3.573023,-11.634755 -0.660022,-14.192405 1.285814,-1.12896 1.744369,-1.20395 6.337223,-1.03628 l 3.992261,0.14574 -1.322916,-0.60033 c -3.811217,-1.72951 -7.080965,-1.54737 -12.847881,0.71566 -3.203853,1.25725 -3.173696,1.23345 -5.937647,4.685658 -4.049091,5.057357 -3.823034,4.968497 -9.376209,3.685691 -2.614171,-0.603885 -2.684137,-0.588076 -3.613663,0.816533 -1.09433,1.653644 -0.752063,5.803837 0.569065,6.900276 0.745173,0.618437 0.406297,0.83463 -1.006686,0.642233 -2.712384,-0.369329 -5.248418,-2.25934 -6.066219,-4.520927 -0.425106,-1.175613 -0.607253,-1.134261 -1.549685,0.351798 -1.44404,2.277015 -1.693089,4.630258 -0.795309,7.514828 0.623581,2.003573 0.637291,1.983637 -0.992138,1.442429 -3.613188,-1.20011 -4.700944,-2.685852 -4.486219,-6.127631 l 0.136009,-2.180053 -1.075624,0.379502 c -2.807935,0.990698 -4.991778,4.13747 -6.059969,8.732018 -0.182431,0.784677 -0.407173,1.426686 -0.499429,1.426686 -0.233187,0 -1.681385,-3.508118 -2.233833,-5.411242 -0.854675,-2.944265 0.07588,-7.700164 2.461526,-12.580425 2.254308,-4.611584 3.451353,-5.354514 12.772464,-7.927064 10.16188,-2.80459 12.290279,-3.76678 15.495129,-7.00497 2.671389,-2.69917 3.807047,-4.8936 5.670174,-10.95644 1.921817,-6.25382 2.888173,-7.94225 5.180881,-9.05213 1.377074,-0.66663 2.069835,-0.64643 8.828889,0.2574 2.108721,0.28198 3.838847,0.49176 3.844721,0.46618 0.08168,-0.35575 3.363235,-5.05303 4.626721,-6.62277 6.42275,-7.36696 16.26734,-13.55607 24.180191,-15.47953 6.029695,0.21576 17.738125,-1.23074 22.923705,-0.16679 1.15916,0.26475 2.05344,0.53549 1.98727,0.60166 -0.0662,0.0662 -1.63551,0.22579 -3.48744,0.35473 -5.88884,0.41 -9.30056,1.52092 -12.94146,4.21395 -3.855658,2.85188 -7.129358,6.66284 -9.092061,10.5842 -1.510231,3.01735 -2.397997,4.39094 0.305251,2.44252 10.39657,-7.49353 23.48545,-12.14664 33.20131,-11.36227 2.03851,0.16457 2.93788,-0.71463 4.06524,0.29731 1.46036,1.31024 4.59812,4.66831 6.68467,7.21801 0.51836,0.63342 1.19186,1.79838 1.19186,1.79838 l -1.54984,1.73183 c -0.70233,0.7848 -1.3254,1.4529 -1.32561,1.53933 -2.1e-4,0.0864 1.09246,0.15714 2.42814,0.15714 0,0 1.95606,-0.0804 2.82847,-0.0532 0.76932,0.024 1.19939,0.13038 1.7201,0.96823 15.07508,24.25668 14.99761,58.325962 -0.77774,82.01625 -12.22778,18.3628 -31.7229,30.74168 -53.541539,33.42544 -5.341514,0.18516 -10.730277,0.29786 -16.066932,-0.0744 z M 24.049291,73.875623 c 0.3558,-0.01655 0.489487,-2.396633 0.134617,-2.396633 -0.356279,0 -6.683054,2.759882 -6.683054,2.915301 0,0.08372 1.398984,0.0047 3.108854,-0.175533 1.70987,-0.180263 3.257682,-0.334674 3.439583,-0.343135 z"
       id="path1361" />
    <path
       style="display:inline;fill:#f99d25;fill-opacity:1;stroke-width:0.264583"
       d="M 71.872729,148.98392 C 57.321865,147.31033 41.369372,140.97428 28.15246,131.619 c -2.818081,-1.99471 -6.467543,-4.74839 -6.297,-4.91894 0.06865,-0.0686 2.325014,0.93832 4.414336,2.02947 21.040691,10.98853 43.232629,16.20433 57.641475,13.54755 29.555409,-5.44959 45.867809,-22.342 45.883309,-47.514757 0.006,-9.862386 -2.79348,-18.180892 -8.34457,-25.028853 -0.4647,-0.57327 -1.8874,-1.64769 -1.8874,-1.64769 0,0 1.45634,0.67097 1.93593,1.09579 8.82316,7.81548 13.16497,18.877942 12.58414,32.06304 -1.10439,25.07009 -16.15898,41.40651 -43.156083,46.83064 -5.872424,1.17986 -13.523648,1.54474 -19.053868,0.90867 z"
       id="path1355" />
    <path
       id="path1359"
       style="display:inline;fill:#f47e47;fill-opacity:1;stroke-width:0.264583"
       d="m 94.678427,17.355404 c -0.874022,0.146353 -2.514028,0.864672 -2.514028,0.864672 -0.005,0.0016 -0.0099,0.003 -0.01498,0.0047 l -0.03617,0.0124 c -5.857156,1.905471 -12.718172,6.290086 -18.388542,11.815817 -1.164166,1.134481 -1.863357,1.900492 -1.553911,1.702221 0.309446,-0.198271 2.095386,-1.391055 3.96875,-2.650485 11.098506,-7.46128 20.297672,-10.388492 34.887244,-11.026842 2.15204,-0.09416 4.35205,0.238774 4.41915,0.130224 -4.51385,-2.098328 -13.49065,-2.071155 -20.767514,-0.85266 z m 29.725343,7.105635 c -2.88725,0.03401 -5.98238,0.465997 -9.15861,1.249536 -1.4151,0.321737 -2.83224,0.736241 -4.31343,1.26504 -5.40398,1.831887 -10.87976,4.603808 -15.838828,8.127153 -0.225713,0.160364 -0.425992,0.311687 -0.637688,0.467669 -0.913415,0.634471 -1.598358,1.166519 -1.900658,1.502752 -0.271759,0.244872 -0.437668,0.422806 -0.438216,0.487825 -0.0019,0.228291 0.378886,0.108106 1.121378,-0.353983 4.877549,-3.03557 13.334492,-6.07227 21.232812,-7.624342 5.9202,-1.16336 7.52296,-1.327184 13.00954,-1.331185 3.74256,-0.0026 5.73709,-0.03585 5.62003,-0.550288 -0.54891,0.05556 -3.21919,-3.142112 -3.49472,-3.149939 -1.76202,-0.02935 -3.51943,-0.104967 -5.20161,-0.09024 z m 13.5692,13.448791 c -0.13311,-0.0013 -0.2229,0.0027 -0.32918,0.0047 -0.002,2.6e-5 -0.003,-2.9e-5 -0.005,0 -0.008,-1.6e-5 -0.0116,5.29e-4 -0.0191,5.29e-4 -0.0851,0.0019 -0.18597,0.0016 -0.25322,0.0057 -1.4316,0.02712 -1.07386,0.282376 1.13534,0.78238 1.80265,0.408012 3.10279,0.513009 3.34241,0.384792 -0.009,-0.363495 -0.35387,-1.031084 -0.49377,-1.076071 -0.48635,-0.156401 -1.25039,-0.03143 -2.5598,-0.08078 -0.31326,-0.01183 -0.58607,-0.01894 -0.81803,-0.02119 z M 92.525616,53.183316 c -0.144566,0.03086 -0.05741,0.804381 0.156064,2.541447 1.103652,8.980601 -2.850914,17.379751 -10.32185,21.924243 l -1.226799,0.746725 1.984375,-0.165364 c 6.48758,-0.540515 9.277635,-2.1061 11.264945,-6.320544 2.831208,-6.004092 2.511295,-11.353112 -1.049547,-17.555001 -0.442177,-0.770133 -0.694745,-1.195504 -0.807188,-1.171506 z M 77.970435,80.781114 c -0.0079,0.0013 -0.01836,0.0085 -0.03101,0.02119 -0.10114,0.10114 -1.156211,2.539296 -2.34456,5.418275 -4.151593,10.05795 -8.207999,18.536931 -11.146089,23.465751 -7.94e-4,0.001 -0.0019,0.002 -0.0026,0.004 -0.247049,0.4121 -0.480377,0.78762 -0.710033,1.15342 -1.045707,1.64635 -1.919872,2.76455 -2.557984,3.21892 -0.927229,0.66024 -4.249144,0.73599 -7.429521,0.1695 -1.091406,-0.19441 -2.033156,-0.30957 -2.092893,-0.2558 -0.432973,0.38966 4.405926,3.77394 6.809401,4.7625 2.012661,0.8278 3.483229,0.8208 4.484481,-0.0217 1.046676,-0.88071 3.870177,-7.8388 11.707812,-28.8494 1.574234,-4.220104 2.998198,-8.027482 3.16415,-8.460983 0.145206,-0.379312 0.204163,-0.635064 0.148828,-0.625285 z" />
    <path
       style="display:inline;fill:#010101;stroke-width:0.264583"
       d="M 69.929997,157.55477 C 33.428162,152.95513 5.3951225,124.6377 1.1789517,88.10625 0.55780384,82.724249 0.74808416,72.822297 1.572989,67.601042 8.6655606,22.70842 51.077831,-6.6318834 95.646875,2.5218488 120.99896,7.72874 142.85851,26.193547 152.48771,50.535417 c 5.55952,14.054037 6.92737,30.699905 3.73576,45.461766 -6.89606,31.895717 -32.27942,55.855527 -64.829891,61.194127 -4.47521,0.73398 -16.859036,0.94368 -21.463582,0.36346 z m 19.66876,-4.46255 c 16.544283,-2.50673 30.824533,-9.6573 42.299403,-21.18064 C 168.07636,95.58056 157.62043,34.694884 111.38659,12.471065 63.110652,-10.73435 6.849785,23.493952 5.1135653,77.126042 3.8541095,116.03083 32.790262,149.1934 71.702083,153.44047 c 3.297666,0.35993 14.685206,0.13834 17.896674,-0.34825 z"
       id="path1225" />
    <path
       id="path988-5-2"
       style="display:inline;fill:#f0b01f;fill-opacity:1;stroke-width:2.67215;stroke-linecap:round;stroke-linejoin:round;paint-order:stroke markers fill"
       d="m 62.395379,45.170721 c -1.396864,0.0051 -12.631467,6.518215 -12.631467,7.372967 0,0.882324 11.971092,7.793984 12.73521,7.352822 0.764117,-0.441165 0.764117,-14.264247 0,-14.70541 -0.02388,-0.01378 -0.05869,-0.02055 -0.103747,-0.02038 z m 13.310199,0 c -1.396862,0.0051 -12.631468,6.518215 -12.631468,7.372967 0,0.882324 11.971095,7.793984 12.735211,7.352822 0.764116,-0.441165 0.764118,-14.264247 0,-14.70541 -0.02388,-0.01378 -0.05869,-0.02055 -0.103746,-0.02038 z" />
  </g>
</svg>
